<?xml version="1.0" encoding="utf-8"?>
<!-- Generator: Adobe Illustrator 16.0.0, SVG Export Plug-In . SVG Version: 6.00 Build 0)  -->
<!DOCTYPE svg PUBLIC "-//W3C//DTD SVG 1.1//EN" "http://www.w3.org/Graphics/SVG/1.1/DTD/svg11.dtd">
<svg version="1.1" id="Layer_1" xmlns="http://www.w3.org/2000/svg" xmlns:xlink="http://www.w3.org/1999/xlink" x="0px" y="0px"
	 width="512px" height="512px" viewBox="0 0 512 512" enable-background="new 0 0 512 512" xml:space="preserve">
<g>
	<g>
		<path d="M470.39,235.616h-98.053v-42.679c0-11.072-9.008-20.084-20.067-20.084h-65.866c-0.828-0.37-1.737-0.595-2.704-0.595
			h-21.74c-2.6,0-4.851,1.49-5.958,3.661c-1.106-2.171-3.356-3.661-5.956-3.661h-21.741c-0.971,0-1.875,0.226-2.707,0.595h-65.862
			c-11.068,0-20.071,9.013-20.071,20.084v43.266H41.611c-3.693,0-6.69,3.009-6.69,6.695v26.78c0,3.707,2.997,6.695,6.69,6.695
			h98.053v43.282c0,11.076,9.003,20.086,20.071,20.086h68.568c0.971,0,1.873-0.229,2.702-0.6h19.039c2.6,0,4.85-1.488,5.956-3.659
			c1.107,2.171,3.358,3.659,5.958,3.659h19.036c0.822,0.37,1.738,0.6,2.704,0.6h68.57c11.06,0,20.067-9.01,20.067-20.086v-43.871
			h98.053c3.691,0,6.688-3.006,6.688-6.694v-26.779C477.078,238.609,474.081,235.616,470.39,235.616z M139.665,262.983H48.3v-13.39
			h91.365V262.983z M221.621,326.351h-61.88c-3.687,0-6.688-3.006-6.688-6.695V192.937c0-3.691,3.002-6.695,6.688-6.695h61.88
			V326.351z M243.361,325.752H235V185.648h8.362V325.752z M277.009,325.752h-8.359V185.648h8.359V325.752z M358.958,319.656
			c0,3.689-3.004,6.695-6.688,6.695h-61.88V186.242h61.88c3.685,0,6.688,3.004,6.688,6.695V319.656z M463.699,262.395h-91.362
			v-13.388h91.362V262.395z M329.51,194.324c-3.697,0-6.688,2.998-6.688,6.695v81.461c0,3.7,2.991,6.695,6.688,6.695
			c3.687,0,6.69-2.995,6.69-6.695v-81.461C336.2,197.315,333.196,194.324,329.51,194.324z"/>
	</g>
</g>
</svg>
