<?xml version="1.0" encoding="utf-8"?>
<!-- Generator: Adobe Illustrator 16.0.0, SVG Export Plug-In . SVG Version: 6.00 Build 0)  -->
<!DOCTYPE svg PUBLIC "-//W3C//DTD SVG 1.1//EN" "http://www.w3.org/Graphics/SVG/1.1/DTD/svg11.dtd">
<svg version="1.1" id="Layer_1" xmlns="http://www.w3.org/2000/svg" xmlns:xlink="http://www.w3.org/1999/xlink" x="0px" y="0px"
	 width="512px" height="512px" viewBox="0 0 512 512" enable-background="new 0 0 512 512" xml:space="preserve">
<g>
	<g>
		<path d="M256.309,209.172h-49.08v-30.641c0-3.718-3.014-6.732-6.725-6.732h-21.86c-0.976,0-1.886,0.228-2.721,0.6H109.7
			c-11.129,0-20.182,9.062-20.182,20.193v43.503H40.437c-3.713,0-6.727,3.024-6.727,6.731v26.927c0,3.729,3.014,6.731,6.727,6.731
			h49.082v43.521c0,11.137,9.053,20.195,20.182,20.195h68.944c0.976,0,1.883-0.229,2.717-0.604h19.143
			c3.711,0,6.725-3.013,6.725-6.731V302.82h49.08c3.717,0,6.725-3.022,6.725-6.731v-26.928c0-3.721-3.008-6.73-6.725-6.73h-49.08
			v-12.873h49.08c3.717,0,6.725-3.012,6.725-6.731v-26.923C263.034,212.189,260.027,209.172,256.309,209.172z M89.519,263.021
			H47.162v-13.463h42.357V263.021z M171.924,326.737h-62.219c-3.707,0-6.725-3.022-6.725-6.731V192.592
			c0-3.711,3.019-6.731,6.725-6.731h62.219V326.737z M193.784,326.135h-8.408V185.262h8.408V326.135z M207.239,275.893h42.357
			v13.464h-42.357V275.893z M249.596,236.094h-42.357v-13.463h42.357V236.094z M471.564,235.505h-49.082v-42.913
			c0-11.133-9.059-20.193-20.178-20.193h-66.228c-0.833-0.372-1.747-0.6-2.72-0.6h-21.859c-3.711,0-6.729,3.015-6.729,6.732v154.335
			c0,3.721,3.018,6.731,6.729,6.731h19.143c0.825,0.373,1.746,0.604,2.719,0.604h68.945c11.119,0,20.178-9.06,20.178-20.195v-44.111
			h49.082c3.711,0,6.725-3.022,6.725-6.731v-26.925C478.289,238.514,475.275,235.505,471.564,235.505z M326.634,326.135h-8.407
			V185.262h8.407V326.135z M409.029,320.006c0,3.709-3.021,6.731-6.725,6.731h-62.22V185.86h62.22c3.704,0,6.725,3.021,6.725,6.731
			V320.006z M464.837,262.43h-42.354v-13.463h42.354V262.43z M388.852,193.986c-3.719,0-6.726,3.015-6.726,6.73v81.908
			c0,3.721,3.007,6.731,6.726,6.731c3.707,0,6.728-3.012,6.728-6.731v-81.908C395.578,196.994,392.559,193.986,388.852,193.986z"/>
	</g>
</g>
</svg>
