<?xml version="1.0" encoding="utf-8"?>
<!-- Generator: Adobe Illustrator 16.0.0, SVG Export Plug-In . SVG Version: 6.00 Build 0)  -->
<!DOCTYPE svg PUBLIC "-//W3C//DTD SVG 1.1//EN" "http://www.w3.org/Graphics/SVG/1.1/DTD/svg11.dtd">
<svg version="1.1" id="Layer_1" xmlns="http://www.w3.org/2000/svg" xmlns:xlink="http://www.w3.org/1999/xlink" x="0px" y="0px"
	 width="512px" height="512px" viewBox="0 0 512 512" enable-background="new 0 0 512 512" xml:space="preserve">
<g>
	<g>
		<path fill="#FFFFFF" d="M486.538,209.732h-33.343c0-2.568-0.347-5.177-1.1-7.767C426.74,115.49,346.193,55.096,256.225,55.096
			c-89.945,0-170.488,60.379-195.855,146.833c-4.276,14.579,4.038,29.879,18.578,34.169c14.524,4.281,29.791-4.055,34.072-18.635
			c18.544-63.191,77.436-107.336,143.206-107.336c63.042,0,119.647,40.587,140.585,99.599h-31.803
			c-12.63,0-15.635,7.262-6.702,16.212l51.294,51.443c8.934,8.958,23.405,8.958,32.338,0l51.296-51.438
			C502.161,216.993,499.162,209.732,486.538,209.732z M432.995,304.903c-14.534-4.268-29.797,4.052-34.067,18.637
			c-18.545,63.194-77.439,107.328-143.206,107.328c-63.045,0-119.646-40.593-140.587-99.595h31.803
			c12.628,0,15.625-7.263,6.699-16.213l-51.296-51.439c-8.932-8.955-23.408-8.955-32.341,0L18.71,315.06
			c-8.932,8.955-5.93,16.213,6.699,16.213h33.334c0,2.569,0.345,5.171,1.106,7.758c25.355,86.479,105.896,146.874,195.871,146.874
			c89.954,0,170.492-60.384,195.857-146.838C455.851,324.494,447.538,309.195,432.995,304.903z"/>
	</g>
</g>
</svg>
