<?xml version="1.0" encoding="utf-8"?>
<!-- Generator: Adobe Illustrator 16.0.0, SVG Export Plug-In . SVG Version: 6.00 Build 0)  -->
<!DOCTYPE svg PUBLIC "-//W3C//DTD SVG 1.1//EN" "http://www.w3.org/Graphics/SVG/1.1/DTD/svg11.dtd">
<svg version="1.1" id="Layer_1" xmlns="http://www.w3.org/2000/svg" xmlns:xlink="http://www.w3.org/1999/xlink" x="0px" y="0px"
	 width="512px" height="512px" viewBox="0 0 512 512" enable-background="new 0 0 512 512" xml:space="preserve">
<g>
	<g>
		<path fill="#FFFFFF" d="M470.39,235.616h-98.053v-42.679c0-11.072-9.009-20.084-20.067-20.084h-65.866
			c-0.827-0.37-1.736-0.596-2.703-0.596h-21.74c-2.601,0-4.852,1.49-5.958,3.661c-1.106-2.171-3.356-3.661-5.956-3.661h-21.741
			c-0.971,0-1.875,0.227-2.707,0.596h-65.862c-11.067,0-20.07,9.013-20.07,20.084v43.266H41.611c-3.692,0-6.689,3.009-6.689,6.695
			v26.78c0,3.707,2.997,6.694,6.689,6.694h98.054v43.282c0,11.076,9.003,20.086,20.07,20.086h68.568c0.971,0,1.873-0.229,2.702-0.6
			h19.039c2.6,0,4.85-1.488,5.956-3.659c1.106,2.171,3.357,3.659,5.958,3.659h19.036c0.821,0.37,1.737,0.6,2.704,0.6h68.569
			c11.06,0,20.067-9.01,20.067-20.086v-43.871h98.053c3.69,0,6.688-3.006,6.688-6.694v-26.778
			C477.077,238.609,474.08,235.616,470.39,235.616z M139.665,262.983H48.3v-13.39h91.365V262.983z M221.621,326.351h-61.88
			c-3.688,0-6.688-3.006-6.688-6.695V192.937c0-3.691,3.002-6.695,6.688-6.695h61.88V326.351z M243.361,325.752H235V185.648h8.361
			L243.361,325.752L243.361,325.752z M277.009,325.752h-8.359V185.648h8.359V325.752z M358.957,319.656
			c0,3.689-3.004,6.695-6.688,6.695h-61.88V186.242h61.88c3.685,0,6.688,3.004,6.688,6.695V319.656z M463.698,262.395h-91.361
			v-13.389h91.361V262.395z M329.51,194.324c-3.697,0-6.688,2.998-6.688,6.695v81.461c0,3.7,2.991,6.695,6.688,6.695
			c3.687,0,6.689-2.995,6.689-6.695v-81.461C336.199,197.315,333.196,194.324,329.51,194.324z"/>
	</g>
</g>
</svg>
