<?xml version="1.0" encoding="utf-8"?>
<!-- Generator: Adobe Illustrator 16.0.0, SVG Export Plug-In . SVG Version: 6.00 Build 0)  -->
<!DOCTYPE svg PUBLIC "-//W3C//DTD SVG 1.1//EN" "http://www.w3.org/Graphics/SVG/1.1/DTD/svg11.dtd">
<svg version="1.1" id="Layer_1" xmlns="http://www.w3.org/2000/svg" xmlns:xlink="http://www.w3.org/1999/xlink" x="0px" y="0px"
	 width="512px" height="512px" viewBox="0 0 512 512" enable-background="new 0 0 512 512" xml:space="preserve">
<path fill="#FFFFFF" d="M427.044,239.681c-0.325-3.151-0.761-6.266-1.247-9.357l-31.343,31.43c-6.618,6.638-17.344,6.638-23.963,0
	l-27.895-27.977c1.261,4.717,2.177,9.589,2.682,14.604c5.078,50.388-31.658,95.343-82.042,100.414
	c-37.727,3.797-72.407-15.847-89.583-47.108h-21.358c15.518,43.721,57.458,73.799,104.173,73.799
	c48.732,0,92.373-32.702,106.114-79.529c3.166-10.807,14.475-16.972,25.244-13.81c10.776,3.182,16.937,14.518,13.771,25.314
	c-18.796,64.063-78.476,108.807-145.129,108.807c-66.669,0-126.35-44.752-145.138-108.832c-0.565-1.916-0.82-3.846-0.82-5.749h-24.7
	c-9.356,0-11.583-5.377-4.964-12.015l38.005-38.114c6.62-6.638,17.347-6.638,23.965,0l20.771,20.828
	c-0.303-1.858-0.569-3.732-0.76-5.633c-5.074-50.381,31.654-95.338,82.042-100.411c37.14-3.741,71.31,15.253,88.749,45.671
	c1.106-0.246,2.37-0.392,3.83-0.392h23.565c-15.516-43.726-57.459-73.801-104.172-73.801c-48.735,0-92.373,32.71-106.114,79.535
	c-3.172,10.803-14.483,16.979-25.246,13.806c-10.774-3.178-16.936-14.514-13.768-25.317
	c18.798-64.062,78.479-108.803,145.127-108.803c66.666,0,126.35,44.751,145.139,108.829c0.559,1.918,0.813,3.853,0.813,5.754h18.995
	c-6.069-22.259-16.363-42.594-29.928-60.174l28.521-31.394l-45.391-41.229l-28.527,31.403c-23.389-14.693-50.387-23.925-79.061-26.1
	l-4.25-42.182l-61.011,6.145l4.247,42.185c-31.719,8.995-59.433,26.646-80.755,50.012l-35.884-22.642L57.03,169.511l35.858,22.625
	c-10.344,25.417-14.819,53.653-11.881,82.858c0.396,3.903,0.929,7.757,1.565,11.568L42.64,300.9l20.719,57.716l39.896-14.322
	c16.165,28.076,39.866,50.99,68.07,66.271l-13.287,40.279l58.236,19.204l13.279-40.262c13.604,1.924,27.645,2.269,41.926,0.83
	c18.504-1.863,36.036-6.575,52.215-13.637l23.546,35.247l50.99-34.067l-23.568-35.269c23.011-22.185,39.798-50.54,47.891-82.058
	l42.262,3.145l4.548-61.151L427.044,239.681z"/>
<path fill="none" stroke="#FFFFFF" stroke-width="10" stroke-miterlimit="10" d="M427.502,211.625h-24.707
	c0-1.902-0.256-3.836-0.813-5.754c-18.789-64.078-78.473-108.829-145.139-108.829c-66.648,0-126.329,44.741-145.127,108.803
	c-3.168,10.804,2.992,22.14,13.768,25.317c10.763,3.173,22.074-3.003,25.246-13.806c13.741-46.825,57.379-79.535,106.114-79.535
	c46.713,0,88.656,30.075,104.172,73.801H337.45c-9.356,0-11.585,5.38-4.965,12.014l38.008,38.118c6.619,6.638,17.345,6.638,23.964,0
	l38.009-38.115C439.079,217.006,436.856,211.625,427.502,211.625z"/>
<path fill="none" stroke="#FFFFFF" stroke-width="10" stroke-miterlimit="10" d="M387.827,282.145
	c-10.771-3.162-22.077,3.003-25.243,13.81c-13.742,46.827-57.383,79.529-106.115,79.529c-46.715,0-88.656-30.078-104.173-73.799
	h23.565c9.357,0,11.578-5.381,4.965-12.015l-38.01-38.114c-6.617-6.638-17.345-6.638-23.965,0l-38.005,38.114
	c-6.618,6.638-4.393,12.015,4.964,12.015h24.7c0,1.903,0.255,3.833,0.82,5.749c18.788,64.08,78.468,108.832,145.138,108.832
	c66.654,0,126.333-44.744,145.129-108.807C404.764,296.663,398.604,285.327,387.827,282.145z"/>
</svg>
