<?xml version="1.0" encoding="utf-8"?>
<!-- Generator: Adobe Illustrator 16.0.0, SVG Export Plug-In . SVG Version: 6.00 Build 0)  -->
<!DOCTYPE svg PUBLIC "-//W3C//DTD SVG 1.1//EN" "http://www.w3.org/Graphics/SVG/1.1/DTD/svg11.dtd">
<svg version="1.1" id="Layer_1" xmlns="http://www.w3.org/2000/svg" xmlns:xlink="http://www.w3.org/1999/xlink" x="0px" y="0px"
	 width="512px" height="512px" viewBox="0 0 512 512" enable-background="new 0 0 512 512" xml:space="preserve">
<polygon fill="#FFFFFF" points="184.187,89.002 60.14,89.002 44.635,138.288 200.8,138.288 "/>
<rect x="25.806" y="436.425" fill="#FFFFFF" width="467.389" height="43.075"/>
<rect x="247.517" y="414.144" fill="#FFFFFF" width="23.965" height="28.78"/>
<g>
	<path fill="#FFFFFF" d="M196.657,358.142v13.25H322.36v-13.25c0-14.539-38.84-72.181-38.829-79.472
		c0-7.28,38.851-64.922,38.851-79.464v-13.265H196.657v13.265c0,14.542,38.518,72.184,38.518,79.464
		C235.175,285.962,196.657,343.603,196.657,358.142z M215.673,212.882v-7.371h87.665v7.371c0,0-4.336,25.006-38.354,54.251v17.845
		c0,0,24.363,23.64,38.354,57.726v8.412h-87.665v-8.412c10.768-30.877,38.358-57.726,38.358-57.726v-17.845
		C229.004,249.993,215.673,212.882,215.673,212.882z"/>
	<path fill="#FFFFFF" d="M25.806,149.363v258.614h467.389V149.363H25.806z M347.507,185.941h-12.573v13.265
		c0,20.234-36.344,75.168-38.274,79.464c1.931,4.293,38.274,59.228,38.274,79.472v13.25h12.573v25.278H171.493v-25.278h12.583
		v-13.25c0-20.154,36.36-75.448,38.028-79.424c-1.697-3.992-38.028-59.267-38.028-79.512v-13.265h-12.583v-25.271h176.014V185.941z"
		/>
</g>
</svg>
