<?xml version="1.0" encoding="utf-8"?>
<!-- Generator: Adobe Illustrator 16.0.0, SVG Export Plug-In . SVG Version: 6.00 Build 0)  -->
<!DOCTYPE svg PUBLIC "-//W3C//DTD SVG 1.1//EN" "http://www.w3.org/Graphics/SVG/1.1/DTD/svg11.dtd">
<svg version="1.1" id="Layer_3" xmlns="http://www.w3.org/2000/svg" xmlns:xlink="http://www.w3.org/1999/xlink" x="0px" y="0px"
	 width="512px" height="512px" viewBox="0 0 512 512" enable-background="new 0 0 512 512" xml:space="preserve">
<polygon fill="#FFFFFF" points="25.806,149.363 25.806,407.977 199.794,407.977 163.5,364.5 214.5,364.5 214.5,199.5 304.5,199.5 
	304.5,364.5 355.5,364.5 319.205,407.977 493.195,407.977 493.195,149.363 "/>
<g>
	<polygon fill="#FFFFFF" points="25.806,436.425 25.806,436.426 25.806,479.5 214.5,479.5 259.499,479.5 223.541,436.425 	"/>
	<polygon fill="#FFFFFF" points="295.458,436.425 259.499,479.5 304.5,479.5 493.195,479.5 493.195,436.426 493.195,436.425 	"/>
</g>
<polygon fill="#FFFFFF" points="184.187,89.002 60.14,89.002 44.635,138.288 200.8,138.288 "/>
</svg>
