<?xml version="1.0" encoding="utf-8"?>
<!-- Generator: Adobe Illustrator 16.0.0, SVG Export Plug-In . SVG Version: 6.00 Build 0)  -->
<!DOCTYPE svg PUBLIC "-//W3C//DTD SVG 1.1//EN" "http://www.w3.org/Graphics/SVG/1.1/DTD/svg11.dtd">
<svg version="1.1" id="Layer_1" xmlns="http://www.w3.org/2000/svg" xmlns:xlink="http://www.w3.org/1999/xlink" x="0px" y="0px"
	 width="512px" height="512px" viewBox="0 0 512 512" enable-background="new 0 0 512 512" xml:space="preserve">
<g>
	<g>
		<path d="M335.88,430.58c-2.963-2.936-6.473-4.397-10.522-4.397h-14.964V190.947c0-4.009-1.486-7.488-4.442-10.43
			c-2.965-2.933-6.471-4.399-10.521-4.399H205.63c-4.054,0-7.563,1.467-10.525,4.399c-2.964,2.942-4.445,6.416-4.445,10.43v29.656
			c0,4.017,1.481,7.493,4.445,10.43c2.958,2.941,6.467,4.408,10.525,4.408h14.967v190.742H205.63c-4.054,0-7.563,1.467-10.525,4.397
			c-2.964,2.943-4.445,6.417-4.445,10.43v29.658c0,4.018,1.481,7.491,4.445,10.431c2.958,2.938,6.467,4.405,10.525,4.405h119.728
			c4.056,0,7.56-1.467,10.522-4.405c2.961-2.931,4.451-6.409,4.451-10.431V441.01C340.331,437.006,338.845,433.523,335.88,430.58z
			 M262.412,155.138c27.77,0,50.285-22.306,50.285-49.821c0-27.517-22.516-49.823-50.285-49.823
			c-27.771,0-50.283,22.306-50.283,49.823C212.129,132.832,234.641,155.138,262.412,155.138z"/>
	</g>
</g>
</svg>
