<?xml version="1.0" encoding="utf-8"?>
<!-- Generator: Adobe Illustrator 16.0.0, SVG Export Plug-In . SVG Version: 6.00 Build 0)  -->
<!DOCTYPE svg PUBLIC "-//W3C//DTD SVG 1.1//EN" "http://www.w3.org/Graphics/SVG/1.1/DTD/svg11.dtd">
<svg version="1.1" id="Layer_1" xmlns="http://www.w3.org/2000/svg" xmlns:xlink="http://www.w3.org/1999/xlink" x="0px" y="0px"
	 width="512px" height="512px" viewBox="0 0 512 512" enable-background="new 0 0 512 512" xml:space="preserve">
<g>
	<g>
		<path d="M486.539,209.732h-33.343c0-2.568-0.347-5.177-1.1-7.766c-25.355-86.476-105.903-146.87-195.871-146.87
			c-89.945,0-170.488,60.379-195.856,146.833c-4.276,14.58,4.038,29.879,18.579,34.169c14.524,4.282,29.791-4.054,34.072-18.634
			c18.544-63.192,77.435-107.336,143.206-107.336c63.042,0,119.647,40.587,140.585,99.598h-31.803
			c-12.63,0-15.635,7.262-6.702,16.212l51.294,51.444c8.934,8.958,23.405,8.958,32.338,0l51.296-51.438
			C502.162,216.993,499.163,209.732,486.539,209.732z M432.996,304.903c-14.535-4.268-29.797,4.052-34.068,18.637
			c-18.545,63.194-77.439,107.328-143.206,107.328c-63.045,0-119.646-40.593-140.587-99.595h31.803
			c12.628,0,15.625-7.263,6.699-16.213l-51.296-51.439c-8.932-8.955-23.408-8.955-32.341,0l-51.29,51.439
			c-8.931,8.955-5.929,16.213,6.699,16.213h33.334c0,2.569,0.345,5.171,1.107,7.758c25.355,86.479,105.896,146.874,195.871,146.874
			c89.954,0,170.492-60.384,195.858-146.838C455.851,324.494,447.539,309.195,432.996,304.903z"/>
	</g>
</g>
</svg>
