<?xml version="1.0" encoding="utf-8"?>
<!-- Generator: Adobe Illustrator 16.0.0, SVG Export Plug-In . SVG Version: 6.00 Build 0)  -->
<!DOCTYPE svg PUBLIC "-//W3C//DTD SVG 1.1//EN" "http://www.w3.org/Graphics/SVG/1.1/DTD/svg11.dtd">
<svg version="1.1" id="Layer_1" xmlns="http://www.w3.org/2000/svg" xmlns:xlink="http://www.w3.org/1999/xlink" x="0px" y="0px"
	 width="512px" height="512px" viewBox="0 0 512 512" enable-background="new 0 0 512 512" xml:space="preserve">
<path d="M427.044,239.681c-0.325-3.151-0.76-6.265-1.247-9.357l-31.342,31.43c-6.619,6.637-17.344,6.637-23.963,0l-27.895-27.977
	c1.261,4.717,2.177,9.589,2.682,14.604c5.078,50.387-31.658,95.342-82.042,100.414c-37.727,3.797-72.408-15.847-89.583-47.109
	h-21.359c15.518,43.721,57.458,73.799,104.173,73.799c48.733,0,92.373-32.702,106.115-79.529
	c3.166-10.807,14.474-16.972,25.244-13.81c10.776,3.182,16.936,14.518,13.771,25.315c-18.796,64.062-78.475,108.806-145.129,108.806
	c-66.669,0-126.35-44.752-145.138-108.832c-0.565-1.916-0.82-3.845-0.82-5.749h-24.7c-9.357,0-11.583-5.377-4.964-12.014
	l38.005-38.115c6.62-6.637,17.347-6.637,23.965,0l20.77,20.828c-0.303-1.858-0.569-3.732-0.76-5.632
	c-5.074-50.381,31.655-95.338,82.042-100.411c37.14-3.742,71.31,15.252,88.75,45.67c1.106-0.246,2.37-0.391,3.83-0.391h23.565
	c-15.515-43.726-57.459-73.801-104.172-73.801c-48.735,0-92.373,32.71-106.114,79.535c-3.172,10.803-14.484,16.979-25.246,13.806
	c-10.775-3.178-16.936-14.514-13.768-25.318c18.798-64.061,78.479-108.802,145.127-108.802c66.666,0,126.35,44.751,145.139,108.829
	c0.559,1.918,0.813,3.852,0.813,5.754h18.996c-6.07-22.259-16.364-42.594-29.928-60.174l28.521-31.394l-45.39-41.229l-28.528,31.403
	c-23.388-14.693-50.387-23.925-79.06-26.099l-4.25-42.182l-61.011,6.144l4.247,42.185c-31.719,8.995-59.433,26.646-80.755,50.012
	l-35.884-22.642L57.03,169.511l35.858,22.625c-10.344,25.417-14.819,53.654-11.881,82.859c0.396,3.903,0.929,7.757,1.566,11.568
	L42.64,300.9l20.719,57.716l39.895-14.322c16.165,28.076,39.866,50.99,68.07,66.271l-13.287,40.279l58.237,19.204l13.279-40.261
	c13.604,1.923,27.645,2.268,41.926,0.83c18.504-1.864,36.036-6.575,52.215-13.637l23.546,35.247l50.99-34.067l-23.568-35.269
	c23.01-22.184,39.798-50.54,47.89-82.057l42.262,3.144l4.548-61.151L427.044,239.681z"/>
<path fill="none" stroke="#000000" stroke-width="10" stroke-miterlimit="10" d="M427.502,211.625h-24.707
	c0-1.903-0.255-3.836-0.813-5.754c-18.789-64.078-78.473-108.829-145.139-108.829c-66.648,0-126.329,44.741-145.127,108.802
	c-3.168,10.804,2.992,22.14,13.768,25.318c10.762,3.173,22.074-3.003,25.246-13.806c13.741-46.825,57.379-79.535,106.114-79.535
	c46.713,0,88.657,30.075,104.172,73.801h-23.565c-9.357,0-11.585,5.38-4.965,12.013l38.008,38.119
	c6.619,6.637,17.344,6.637,23.963,0l38.009-38.116C439.08,217.006,436.856,211.625,427.502,211.625z"/>
<path fill="none" stroke="#000000" stroke-width="10" stroke-miterlimit="10" d="M387.828,282.145
	c-10.771-3.162-22.078,3.003-25.244,13.81c-13.742,46.827-57.382,79.529-106.115,79.529c-46.715,0-88.656-30.078-104.173-73.799
	h23.566c9.357,0,11.578-5.381,4.964-12.014l-38.009-38.115c-6.618-6.637-17.345-6.637-23.965,0l-38.005,38.115
	c-6.618,6.637-4.393,12.014,4.964,12.014h24.7c0,1.904,0.255,3.833,0.82,5.749c18.788,64.08,78.468,108.832,145.138,108.832
	c66.655,0,126.333-44.744,145.129-108.806C404.764,296.663,398.604,285.327,387.828,282.145z"/>
</svg>
