<?xml version="1.0" encoding="utf-8"?>
<!-- Generator: Adobe Illustrator 16.0.0, SVG Export Plug-In . SVG Version: 6.00 Build 0)  -->
<!DOCTYPE svg PUBLIC "-//W3C//DTD SVG 1.1//EN" "http://www.w3.org/Graphics/SVG/1.1/DTD/svg11.dtd">
<svg version="1.1" id="eqFTPSettingsSVG" xmlns="http://www.w3.org/2000/svg" xmlns:xlink="http://www.w3.org/1999/xlink" x="0px" y="0px"
	 width="512px" height="512px" viewBox="0 0 512 512" enable-background="new 0 0 512 512" xml:space="preserve">
<rect class="eqFTPSettingsSVG" x="80.176" y="428.737" width="351.649" height="27.005"/>
<rect class="eqFTPSettingsSVG" x="335.811" y="410.735" width="48.606" height="18.002"/>
<path class="eqFTPSettingsSVG" d="M237.436,176.81l16.76,1.246l1.803-24.251l-16.781-1.248c-1.366-13.22-6.386-25.182-13.952-34.99l11.31-12.45
	l-18.001-16.351l-11.313,12.454c-9.275-5.827-19.982-9.488-31.354-10.35l-1.685-16.729l-24.196,2.437l1.684,16.729
	c-12.579,3.568-23.57,10.568-32.026,19.834l-14.231-8.979l-12.977,20.567l14.221,8.973c-4.103,10.08-5.877,21.278-4.712,32.86
	c0.157,1.548,0.368,3.076,0.621,4.588l-15.837,5.686l8.217,22.888l15.821-5.679c6.411,11.134,15.81,20.221,26.995,26.282
	l-5.269,15.974l23.096,7.616l5.266-15.967c5.395,0.763,10.964,0.899,16.627,0.329c7.339-0.739,14.292-2.607,20.707-5.408
	l9.339,13.978l20.221-13.51l-9.347-13.987C227.569,200.554,234.226,189.309,237.436,176.81z M134.434,163.294
	c-2.012-19.981,12.554-37.81,32.536-39.822c19.98-2.012,37.81,12.555,39.821,32.536c2.013,19.982-12.555,37.81-32.536,39.822
	C154.275,197.841,136.446,183.275,134.434,163.294z"/>
<path class="eqFTPSettingsSVG" d="M259.591,335.589l16.76,1.245l1.803-24.251l-16.781-1.248c-1.365-13.22-6.387-25.183-13.953-34.99l11.31-12.449
	l-18.001-16.351l-11.312,12.453c-9.276-5.826-19.983-9.487-31.354-10.349l-1.685-16.729l-24.197,2.437l1.685,16.729
	c-12.581,3.567-23.571,10.568-32.028,19.834l-14.231-8.979l-12.977,20.566l14.221,8.974c-4.103,10.079-5.878,21.278-4.711,32.86
	c0.156,1.548,0.366,3.075,0.621,4.587l-15.837,5.687l8.218,22.888l15.819-5.679c6.413,11.134,15.81,20.221,26.996,26.282
	l-5.268,15.974l23.095,7.616l5.266-15.968c5.395,0.764,10.965,0.899,16.628,0.329c7.34-0.738,14.292-2.606,20.708-5.407
	l9.338,13.978l20.22-13.511l-9.345-13.987C249.724,359.333,256.38,348.088,259.591,335.589z M156.588,322.073
	c-2.012-19.981,12.555-37.811,32.536-39.822s37.81,12.555,39.822,32.536s-12.555,37.809-32.537,39.821
	C176.428,356.62,158.6,342.054,156.588,322.073z"/>
<rect class="eqFTPSettingsSVG" x="287.115" y="69.32" width="144.71" height="333.374"/>
</svg>
