<?xml version="1.0" encoding="utf-8"?>
<!-- Generator: Adobe Illustrator 16.0.0, SVG Export Plug-In . SVG Version: 6.00 Build 0)  -->
<!DOCTYPE svg PUBLIC "-//W3C//DTD SVG 1.1//EN" "http://www.w3.org/Graphics/SVG/1.1/DTD/svg11.dtd">
<svg version="1.1" id="Layer_1" xmlns="http://www.w3.org/2000/svg" xmlns:xlink="http://www.w3.org/1999/xlink" x="0px" y="0px"
	 width="512px" height="512px" viewBox="0 0 512 512" enable-background="new 0 0 512 512" xml:space="preserve">
<rect x="247.517" y="385.893" fill="#FFFFFF" width="23.965" height="28.78"/>
<path fill="#FFFFFF" d="M25.806,408.173h467.389v31.076c0,6.627-5.373,12-12,12H37.806c-6.627,0-12-5.373-12-12V408.173z"/>
<path fill="#FFFFFF" d="M493.195,379.726V133.112c0-6.627-5.373-12-12-12H37.806c-6.627,0-12,5.373-12,12v246.613H493.195z"/>
<path fill="#FFFFFF" d="M230.133,110.037V72.751c0-6.627-5.373-12-12-12H85.968c-6.627,0-12,5.373-12,12v37.286H230.133z"/>
</svg>
